<svg width="18" height="10" viewBox="0 0 18 10" fill="none" xmlns="http://www.w3.org/2000/svg">
<path fill-rule="evenodd" clip-rule="evenodd" d="M2.99597 2.99854C4.27334 4.41784 6.22317 5.79992 8.99998 5.79992C11.7768 5.79992 13.7266 4.41784 15.004 2.99854C15.6431 2.28842 16.1063 1.57627 16.4092 1.04161C16.5604 0.774873 16.6707 0.553974 16.7424 0.401875C16.7783 0.325873 16.8044 0.267196 16.8211 0.228732C16.8294 0.209505 16.8353 0.195343 16.839 0.18661L16.8427 0.177632L16.8431 0.176678C16.843 0.176867 16.8429 0.177079 17.4 0.399915C17.9571 0.622751 17.957 0.623009 17.9569 0.623289L17.9566 0.623966L17.9559 0.625731L17.9538 0.630895L17.9469 0.647644C17.9411 0.661616 17.9328 0.681146 17.9221 0.705864C17.9007 0.755291 17.8694 0.82552 17.8279 0.91358C17.7449 1.08961 17.6209 1.33746 17.4533 1.63322C17.1187 2.22356 16.6069 3.01141 15.896 3.80129C15.6765 4.04513 15.4374 4.28985 15.178 4.52939L17.2243 6.57565L16.3757 7.42418L14.2459 5.29437C13.0365 6.17068 11.499 6.85961 9.59999 6.98091L9.6 9.39991L8.4 9.39992L8.39999 6.98091C6.50095 6.85961 4.96345 6.17068 3.75406 5.29439L1.62427 7.42418L0.775739 6.57565L2.82199 4.5294C2.56262 4.28986 2.32347 4.04513 2.10402 3.80129C1.39312 3.01141 0.881261 2.22356 0.546736 1.63322C0.379136 1.33745 0.255113 1.0896 0.17213 0.913578C0.130616 0.825517 0.0993051 0.755288 0.077887 0.705861C0.0671759 0.681143 0.0589326 0.661613 0.0531186 0.647641L0.0462123 0.630893L0.0441151 0.625728L0.0434037 0.623963L0.0431322 0.623286C0.0430198 0.623006 0.0429166 0.622748 0.600003 0.399915C1.15709 0.177082 1.157 0.17687 1.15693 0.176681L1.15682 0.176415L1.15732 0.177635L1.16102 0.186613C1.16466 0.195346 1.17062 0.209507 1.17895 0.228735C1.19562 0.267199 1.22173 0.325876 1.25756 0.401877C1.32927 0.553976 1.43962 0.774875 1.59076 1.04161C1.89374 1.57627 2.35687 2.28842 2.99597 2.99854ZM1.15677 0.176288C1.15675 0.176241 1.15677 0.176283 1.15682 0.176415L1.15677 0.176288Z" fill="currentColor"/>
</svg>
