<svg width="18" height="18" viewBox="0 0 18 14" fill="none" xmlns="http://www.w3.org/2000/svg">
<path fill="currentColor" d="M7.20939 6.9999C7.20939 6.00579 8.01116 5.1999 9.00019 5.1999C9.98922 5.1999 10.791 6.00579 10.791 6.9999C10.791 7.99402 9.98922 8.7999 9.00019 8.7999C8.01116 8.7999 7.20939 7.99402 7.20939 6.9999Z"/>
<path fill="currentColor" fill-rule="evenodd" clip-rule="evenodd" d="M17.3573 6.99988C17.9114 6.77707 17.9113 6.77681 17.9112 6.77653L17.9102 6.77409L17.9082 6.76892L17.9013 6.75217C17.8955 6.7382 17.8873 6.71867 17.8767 6.69395C17.8553 6.64453 17.8242 6.5743 17.7829 6.48624C17.7003 6.31021 17.5769 6.06236 17.4102 5.76659C17.0774 5.17625 16.5681 4.38841 15.8609 3.59852C14.4455 2.01783 12.2068 0.399902 9.0001 0.399902C5.79339 0.399902 3.55472 2.01783 2.13937 3.59852C1.43211 4.38841 0.92286 5.17626 0.590045 5.7666C0.423301 6.06236 0.299912 6.31021 0.217353 6.48624C0.176051 6.5743 0.1449 6.64453 0.123591 6.69396C0.112935 6.71868 0.104733 6.7382 0.098949 6.75218L0.0920781 6.76893L0.0899915 6.77409L0.0892838 6.77585C0.089172 6.77613 0.0887992 6.77707 0.643039 6.9999L0.0887992 6.77707L0.00012207 6.9999L0.0887992 7.22274L0.643039 6.9999C0.0887992 7.22274 0.0886874 7.22246 0.0887992 7.22274L0.0892838 7.22395L0.0899915 7.22572L0.0920781 7.23088L0.098949 7.24763C0.104733 7.2616 0.112935 7.28113 0.123591 7.30585C0.1449 7.35528 0.176051 7.4255 0.217353 7.51357C0.299912 7.68959 0.423301 7.93744 0.590045 8.23321C0.92286 8.82355 1.43211 9.6114 2.13937 10.4013C3.55472 11.982 5.79339 13.5999 9.0001 13.5999C12.2068 13.5999 14.4455 11.982 15.8609 10.4013C16.5681 9.6114 17.0774 8.82355 17.4102 8.23321C17.5769 7.93745 17.7003 7.68959 17.7829 7.51357C17.8242 7.42551 17.8553 7.35528 17.8767 7.30585C17.8873 7.28113 17.8955 7.2616 17.9013 7.24763L17.9082 7.23088L17.9102 7.22572L17.911 7.22395C17.9111 7.22367 17.9114 7.22269 17.3573 6.99988L17.9114 7.22274L18.0001 6.9999L17.9112 6.77653L17.3573 6.99988ZM9.00019 3.9999C7.3518 3.9999 6.01552 5.34305 6.01552 6.9999C6.01552 8.65676 7.3518 9.9999 9.00019 9.9999C10.6486 9.9999 11.9849 8.65676 11.9849 6.9999C11.9849 5.34305 10.6486 3.9999 9.00019 3.9999Z"/>
</svg>
