<svg width="18" height="18" viewBox="0 0 18 18" fill="none" xmlns="http://www.w3.org/2000/svg">
<rect width="18" height="18" rx="2" fill="currentColor"/>
<path d="M9.00007 8.67073C10.2572 8.67073 11.2763 7.63783 11.2763 6.36369C11.2763 5.08954 10.2572 4.05664 9.00007 4.05664C7.74296 4.05664 6.72388 5.08954 6.72388 6.36369C6.72388 7.63783 7.74296 8.67073 9.00007 8.67073Z" fill="#FFF"/>
<path d="M13.5523 9.98911C14.4503 9.98911 15.1782 9.25133 15.1782 8.34123C15.1782 7.43114 14.4503 6.69336 13.5523 6.69336C12.6544 6.69336 11.9265 7.43114 11.9265 8.34123C11.9265 9.25133 12.6544 9.98911 13.5523 9.98911Z" fill="#FFF"/>
<path d="M4.494 9.98911C5.39192 9.98911 6.11983 9.25133 6.11983 8.34123C6.11983 7.43114 5.39192 6.69336 4.494 6.69336C3.59607 6.69336 2.86816 7.43114 2.86816 8.34123C2.86816 9.25133 3.59607 9.98911 4.494 9.98911Z" fill="#FFF"/>
<path d="M9.00015 9.33008C6.66933 9.33008 4.77295 11.2522 4.77295 13.6146C4.77295 13.7965 4.91863 13.9442 5.09813 13.9442H12.9022C13.0817 13.9442 13.2274 13.7965 13.2274 13.6146C13.2274 11.2522 11.331 9.33008 9.00015 9.33008Z" fill="#FFF"/>
<path d="M5.05452 10.7196C4.85552 10.6768 4.65325 10.6484 4.44776 10.6484C2.83427 10.6484 1.52124 11.9793 1.52124 13.6146C1.52124 13.7966 1.66693 13.9442 1.84642 13.9442H4.18242C4.14599 13.8407 4.12258 13.7306 4.12258 13.6146C4.12258 12.533 4.47117 11.5343 5.05452 10.7196Z" fill="#FFF"/>
<path d="M13.5523 10.6484C13.3468 10.6484 13.1446 10.6768 12.9456 10.7196C13.5289 11.5343 13.8775 12.533 13.8775 13.6146C13.8775 13.7306 13.8541 13.8407 13.8177 13.9442H16.1537C16.3331 13.9442 16.4788 13.7966 16.4788 13.6146C16.4788 11.9793 15.1658 10.6484 13.5523 10.6484Z" fill="#FFF"/>
</svg>
